<svg version="1.1" xmlns="http://www.w3.org/2000/svg" xmlns:xlink="http://www.w3.org/1999/xlink">
    <symbol viewBox="0 0 28 28" fill="currentColor" stroke="none" id="telegram">
        <path fill-rule="evenodd" clip-rule="evenodd" d="M14 28C21.732 28 28 21.732 28 14C28 6.26801 21.732 0 14 0C6.26801 0 0 6.26801 0 14C0 21.732 6.26801 28 14 28ZM19.6292 7.082C20.3454 6.76755 21.1112 7.40332 20.9866 8.20879L19.1418 20.1261C19.0297 20.8506 18.2585 21.2282 17.659 20.8523L12.314 17.5005C11.7569 17.1512 11.665 16.3421 12.1281 15.8646L16.9021 10.9426C17.073 10.7665 16.855 10.4821 16.655 10.6203L10.0228 15.2023C9.53253 15.541 8.92458 15.6335 8.36315 15.4547L5.42147 14.5179C4.8888 14.3483 4.85123 13.5703 5.36482 13.3448L19.6292 7.082Z" />
    </symbol>


    <symbol viewBox="0 0 28 28" fill="currentColor" stroke="none" id="vk">
        <path fill-rule="evenodd" clip-rule="evenodd" d="M0.653961 3.27606C0 4.55953 0 6.23969 0 9.6V18.4C0 21.7603 0 23.4405 0.653961 24.7239C1.2292 25.8529 2.14708 26.7708 3.27606 27.346C4.55953 28 6.23969 28 9.6 28H18.4C21.7603 28 23.4405 28 24.7239 27.346C25.8529 26.7708 26.7708 25.8529 27.346 24.7239C28 23.4405 28 21.7603 28 18.4V9.6C28 6.23969 28 4.55953 27.346 3.27606C26.7708 2.14708 25.8529 1.2292 24.7239 0.653961C23.4405 0 21.7603 0 18.4 0H9.6C6.23969 0 4.55953 0 3.27606 0.653961C2.14708 1.2292 1.2292 2.14708 0.653961 3.27606ZM20.7774 15.4461C20.6596 15.7459 20.7079 16.0418 20.9233 16.3341C21.198 16.6425 21.502 16.9561 21.8093 17.2731C22.7186 18.2112 23.6566 19.1788 23.9469 20.1266C24.0492 20.7179 23.562 20.938 23.0674 20.938L20.4032 20.9818C20.2365 21.0183 20.0422 21 19.8206 20.927C19.0527 20.6743 18.5512 20.0687 18.0454 19.4579C17.7208 19.0659 17.3945 18.6718 16.9949 18.3676C16.7958 18.2159 16.5555 18.1126 16.3237 18.2359C15.8003 18.511 15.787 19.0401 15.7736 19.5761C15.7634 19.9812 15.7531 20.3902 15.5224 20.6963C15.2178 21.0344 14.6271 20.9915 14.145 20.9565C14.0099 20.9467 13.8833 20.9375 13.7739 20.9375C8.78898 21.1164 5.53881 13.9703 4.05358 10.2836C3.87592 9.78543 4.15606 9.53818 4.65729 9.53818L7.50887 9.51637C7.81365 9.56959 8.10291 9.74988 8.21654 10.0644C8.64353 11.1088 10.1978 14.8764 11.1617 14.8764C12.1256 14.8764 11.8844 11.0374 11.5571 10.3167C11.3836 10.0682 11.0889 9.9111 10.6725 9.84542C10.5824 9.83098 10.5998 9.74322 10.7247 9.5824C11.1617 9.01984 13.8399 8.85349 15.0125 9.13296C15.2444 9.19425 15.471 9.30309 15.5745 9.54405C15.8091 10.0938 15.7552 11.0194 15.7007 11.9564C15.6331 13.1177 15.5645 14.2966 16.0425 14.7999C16.2271 14.8482 16.3281 14.8538 16.4901 14.7231C17.7214 13.4815 18.5616 11.5495 19.2482 9.96631C19.3364 9.73357 19.4775 9.61918 19.6954 9.56612C20.0747 9.56612 20.4851 9.56782 20.9082 9.56957C21.7951 9.57324 22.738 9.57714 23.5671 9.56612C24.8497 9.56612 22.9937 12.197 21.7427 13.9703C21.2553 14.6611 20.8597 15.2219 20.7774 15.4461Z" />
    </symbol>


    <symbol viewBox="0 0 13 7" fill="none" stroke="currentColor" id="arrowDown">
        <path d="M1.68408 0.833008L6.68408 5.83301L11.6841 0.833008" stroke-width="1.66667" stroke-linecap="round" stroke-linejoin="round"/>
    </symbol>

    <symbol fill="none" stroke="currentColor" viewBox="0 0 16 16" id="error">   
        <path d="M8.00016 5.33325V7.99992M8.00016 10.6666H8.00683M14.6668 7.99992C14.6668 11.6818 11.6821 14.6666 8.00016 14.6666C4.31826 14.6666 1.3335 11.6818 1.3335 7.99992C1.3335 4.31802 4.31826 1.33325 8.00016 1.33325C11.6821 1.33325 14.6668 4.31802 14.6668 7.99992Z" stroke-width="1.33333" stroke-linecap="round" stroke-linejoin="round"/>
    </symbol>

    <symbol fill="none" stroke="currentColor" viewBox="0 0 16 16" id="success">
        <path d="M14.6668 7.38674V8.00007C14.666 9.43769 14.2005 10.8365 13.3397 11.988C12.4789 13.1394 11.269 13.9817 9.8904 14.3893C8.51178 14.797 7.03834 14.748 5.68981 14.2498C4.34128 13.7516 3.18993 12.8308 2.40747 11.6248C1.62501 10.4188 1.25336 8.99212 1.34795 7.55762C1.44254 6.12312 1.9983 4.75762 2.93235 3.66479C3.8664 2.57195 5.12869 1.81033 6.53096 1.4935C7.93323 1.17668 9.40034 1.32163 10.7135 1.90674M14.6668 2.66674L8.00017 9.34007L6.00017 7.34007" stroke-width="1.33" stroke-linecap="round" stroke-linejoin="round"/>
    </symbol>

    <symbol viewBox="0 0 52 66" fill="currentColor" stroke="none" id="arrow">
        <g clip-path="url(#clip0_4449_171276)">
        <path d="M33.2936 51.9983C27.3904 44.0042 21.4208 35.9946 15.5176 28.0005C15.6462 27.7516 15.8621 27.4302 15.9907 27.1813C18.8812 28.6053 21.8381 30.0448 24.7493 31.3806C26.4603 32.1551 28.192 32.8414 30.0067 33.175C33.7689 33.8735 35.9062 30.7473 34.9745 26.0621C34.6417 24.4952 34.1968 22.8089 33.5154 21.5321C30.1333 15.3404 26.6433 9.30938 23.2404 3.20582C22.9911 2.77504 22.6754 2.32863 22.2975 2.14673C21.986 1.98046 21.3673 1.92803 21.085 2.23384C20.6949 2.70037 20.2675 3.62337 20.4504 4.03854C20.891 5.44475 21.4395 6.69026 22.0545 7.95137C24.6681 12.9389 27.4145 17.9577 30.0073 23.0334C30.7801 24.5177 31.25 26.396 32.127 28.9283C30.3331 28.5065 29.2286 28.4329 28.2069 28.0066C23.7383 25.8395 19.3112 23.4959 14.8426 21.3288C13.8417 20.8143 12.8616 20.2117 11.7363 20.2262C10.7647 20.1839 9.4236 20.5199 8.66404 21.3648C7.53505 22.588 7.82632 24.3313 8.48701 25.6962C9.102 26.9573 9.71698 28.2184 10.5063 29.3344C15.2173 35.8386 19.8825 42.239 24.5935 48.7431C25.3371 49.7553 26.06 50.8557 27.2772 52.5376C23.27 51.6885 20.9849 47.9877 16.5173 48.7982C17.2695 50.3707 17.6394 51.4812 18.2459 52.182C23.2014 57.348 28.8457 61.3733 34.8095 64.6364C37.2806 66.0548 39.2813 64.1061 39.2468 60.3762C39.2213 58.6954 39.0629 56.9834 38.5765 55.4734C37.3211 51.2704 35.9784 47.1399 34.5694 42.9939C34.3158 42.2829 33.51 41.5352 33.0035 41.6022C31.8824 41.8969 31.7044 43.2507 31.9207 44.4181C32.3784 46.9448 32.9689 49.5028 33.5137 51.957C33.5551 51.7806 33.3808 51.9257 33.2936 51.9983Z" />
        </g>
        <defs>
        <clipPath id="clip0_4449_171276">
        <rect width="39.3204" height="58.1614" fill="white" transform="matrix(-0.973455 -0.228877 -0.228877 0.973455 51.5884 9)"/>
        </clipPath>
        </defs>
    </symbol>

    
</svg>