<svg version="1.1" xmlns="http://www.w3.org/2000/svg" xmlns:xlink="http://www.w3.org/1999/xlink">
    <symbol viewBox="0 0 300 300" fill="none" id="logo">
        <circle cx="150" cy="150" r="147.5" fill="#F7F7F7" stroke="#D0CAC7" stroke-width="5"/>
        <path d="M124.077 86.1238C98.8982 94.1218 82.4199 106.82 72.5971 132.36C66.3669 148.558 63.014 171.334 85.9755 170.568C105.975 169.902 118.025 157.74 132.425 145.631C134.676 143.738 135.583 142.206 131.569 142.206C125.141 142.206 118.3 147.64 113.803 151.624C99.3464 164.434 88.0564 184.923 80.9452 202.569C75.1951 216.838 67.2704 236.987 74.2025 252.337C79.8613 264.867 100.451 262.449 110.592 258.224C127.694 251.098 141.045 234.781 154.901 222.905" stroke="#FD6F8E" stroke-width="10" stroke-linecap="round"/>
        <path d="M166.46 91.9033C162.032 91.0898 148.406 89.8371 153.831 81.8427C161.89 69.9657 180.103 56.5757 193.324 51.7681C215.451 43.722 208.321 73.263 202.207 84.1973C198.548 90.7414 180.22 124.888 169.885 121.443C164.803 119.749 177.789 114.208 181.872 110.74C190.059 103.786 198.211 98.7935 208.736 96.0773C233.954 89.5693 244.232 106.852 236.456 130.005C228.626 153.316 203.583 182.857 178.982 188.87C170.999 190.822 148.554 194.362 164.534 184.375" stroke="#FD6F8E" stroke-width="10" stroke-linecap="round"/>
        <path d="M145.268 30.2555C127.156 29.9378 125.444 23.4237 130.927 43.5269C134.526 56.7265 147.667 88.3774 133.709 97.6827" stroke="#FD6F8E" stroke-width="10" stroke-linecap="round"/>
    </symbol>

    <symbol viewBox="0 0 36 36" fill="none" id="cross">
        <path d="M24.0956 12.4404C24.0956 12.2857 23.969 12.1591 23.8144 12.1591L21.494 12.1697L17.9995 16.3357L14.5085 12.1732L12.1847 12.1626C12.03 12.1626 11.9034 12.2857 11.9034 12.4439C11.9034 12.5107 11.928 12.574 11.9702 12.6267L16.544 18.0759L11.9702 23.5216C11.9277 23.5731 11.9042 23.6377 11.9034 23.7044C11.9034 23.8591 12.03 23.9857 12.1847 23.9857L14.5085 23.9751L17.9995 19.8091L21.4905 23.9716L23.8108 23.9822C23.9655 23.9822 24.0921 23.8591 24.0921 23.7009C24.0921 23.6341 24.0675 23.5708 24.0253 23.5181L19.4585 18.0724L24.0323 12.6232C24.0745 12.574 24.0956 12.5072 24.0956 12.4404Z" fill="currentColor" fill-opacity="0.85"/>
        <path d="M18 2.25C9.30234 2.25 2.25 9.30234 2.25 18C2.25 26.6977 9.30234 33.75 18 33.75C26.6977 33.75 33.75 26.6977 33.75 18C33.75 9.30234 26.6977 2.25 18 2.25ZM18 31.0781C10.7789 31.0781 4.92188 25.2211 4.92188 18C4.92188 10.7789 10.7789 4.92188 18 4.92188C25.2211 4.92188 31.0781 10.7789 31.0781 18C31.0781 25.2211 25.2211 31.0781 18 31.0781Z" fill="currentColor" fill-opacity="0.85"/>
    </symbol>

    <symbol viewBox="0 0 36 36" fill="none" id="burger">
        <path d="M13.8221 15.1887H33.1078C33.2846 15.1887 33.4292 15.0441 33.4292 14.8673V12.6173C33.4292 12.4405 33.2846 12.2959 33.1078 12.2959H13.8221C13.6453 12.2959 13.5006 12.4405 13.5006 12.6173V14.8673C13.5006 15.0441 13.6453 15.1887 13.8221 15.1887ZM13.5006 23.3852C13.5006 23.5619 13.6453 23.7066 13.8221 23.7066H33.1078C33.2846 23.7066 33.4292 23.5619 33.4292 23.3852V21.1352C33.4292 20.9584 33.2846 20.8137 33.1078 20.8137H13.8221C13.6453 20.8137 13.5006 20.9584 13.5006 21.1352V23.3852ZM33.7506 3.85837H2.25063C2.07384 3.85837 1.9292 4.00301 1.9292 4.1798V6.4298C1.9292 6.60658 2.07384 6.75123 2.25063 6.75123H33.7506C33.9274 6.75123 34.0721 6.60658 34.0721 6.4298V4.1798C34.0721 4.00301 33.9274 3.85837 33.7506 3.85837ZM33.7506 29.2512H2.25063C2.07384 29.2512 1.9292 29.3959 1.9292 29.5727V31.8227C1.9292 31.9994 2.07384 32.1441 2.25063 32.1441H33.7506C33.9274 32.1441 34.0721 31.9994 34.0721 31.8227V29.5727C34.0721 29.3959 33.9274 29.2512 33.7506 29.2512ZM2.06581 18.2785L8.34572 23.2244C8.57875 23.4093 8.92429 23.2445 8.92429 22.9472V13.0552C8.92429 12.7579 8.58277 12.5932 8.34572 12.778L2.06581 17.724C2.02358 17.7568 1.98941 17.7989 1.96591 17.8469C1.9424 17.895 1.93018 17.9477 1.93018 18.0012C1.93018 18.0547 1.9424 18.1075 1.96591 18.1555C1.98941 18.2036 2.02358 18.2456 2.06581 18.2785V18.2785Z" fill="currentColor" fill-opacity="0.85"/>
    </symbol>


   <symbol viewBox="0 0 24 25" stroke="none" id="telegram">
        <circle cx="12" cy="12.8486" r="10.5" fill="currentColor"/>
        <path d="M17.2399 8.50522C17.3334 7.90112 16.7591 7.4243 16.2219 7.66013L5.52361 12.3573C5.13842 12.5264 5.1666 13.1098 5.5661 13.2371L7.77236 13.9396C8.19344 14.0737 8.64939 14.0044 9.01709 13.7504L13.9912 10.3138C14.1412 10.2102 14.3047 10.4235 14.1766 10.5556L10.5961 14.2471C10.2488 14.6052 10.3177 15.212 10.7355 15.474L14.7442 17.9879C15.1938 18.2698 15.7723 17.9866 15.8564 17.4432L17.2399 8.50522Z" fill="white"/>
    </symbol>

    <symbol viewBox="0 0 24 25" stroke="none" id="vk">
        <rect x="1.5" y="2.34863" width="21" height="21" rx="6" fill="currentColor"/>
        <path d="M17.1925 14.5992C17.0309 14.38 16.9947 14.1581 17.083 13.9332C17.3033 13.3333 20.512 9.52323 19.1753 9.52323C18.2568 9.53543 17.1522 9.52323 16.2716 9.52323C16.1081 9.56302 16.0023 9.64881 15.9361 9.82336C15.4212 11.0107 14.7911 12.4597 13.8676 13.391C13.7461 13.4889 13.6703 13.4848 13.5319 13.4485C12.8841 12.7665 13.5748 10.4299 13.1809 9.50667C13.1032 9.32595 12.9333 9.24432 12.7594 9.19835C11.8799 8.98875 9.87126 9.11351 9.54353 9.53543C9.44984 9.65605 9.43677 9.72187 9.50441 9.7327C9.81667 9.78196 10.0377 9.89981 10.1678 10.0861C10.4133 10.6267 10.5942 13.5059 9.87126 13.5059C9.14836 13.5059 7.98265 10.6802 7.66241 9.8969C7.57719 9.66104 7.36024 9.52582 7.13165 9.48591L4.99297 9.50227C4.61704 9.50227 4.40694 9.68771 4.54019 10.0613C5.6541 12.8264 8.09173 18.1859 11.8304 18.0517C12.205 18.0517 12.8493 18.1955 13.1418 17.8708C13.5438 17.3375 13.0535 16.3878 13.7428 16.0256C13.9166 15.933 14.0968 16.0106 14.2462 16.1243C15.0129 16.7081 15.4199 17.7328 16.3654 18.0439C16.5317 18.0986 16.6773 18.1123 16.8024 18.0849L18.8005 18.0521C19.1715 18.0521 19.5369 17.8871 19.4602 17.4436C19.1689 16.4925 18.0081 15.5149 17.1925 14.5992Z" fill="white"/>
    </symbol>

    <symbol viewBox="0 0 13 7" fill="none" stroke="currentColor" id="arrowDown">
        <path d="M1.68408 0.833008L6.68408 5.83301L11.6841 0.833008" stroke-width="1.66667" stroke-linecap="round" stroke-linejoin="round"/>
    </symbol>

    <symbol fill="none" stroke="currentColor" viewBox="0 0 16 16" id="error">   
        <path d="M8.00016 5.33325V7.99992M8.00016 10.6666H8.00683M14.6668 7.99992C14.6668 11.6818 11.6821 14.6666 8.00016 14.6666C4.31826 14.6666 1.3335 11.6818 1.3335 7.99992C1.3335 4.31802 4.31826 1.33325 8.00016 1.33325C11.6821 1.33325 14.6668 4.31802 14.6668 7.99992Z" stroke-width="1.33333" stroke-linecap="round" stroke-linejoin="round"/>
    </symbol>

    <symbol fill="none" stroke="currentColor" viewBox="0 0 16 16" id="success">
        <path d="M14.6668 7.38674V8.00007C14.666 9.43769 14.2005 10.8365 13.3397 11.988C12.4789 13.1394 11.269 13.9817 9.8904 14.3893C8.51178 14.797 7.03834 14.748 5.68981 14.2498C4.34128 13.7516 3.18993 12.8308 2.40747 11.6248C1.62501 10.4188 1.25336 8.99212 1.34795 7.55762C1.44254 6.12312 1.9983 4.75762 2.93235 3.66479C3.8664 2.57195 5.12869 1.81033 6.53096 1.4935C7.93323 1.17668 9.40034 1.32163 10.7135 1.90674M14.6668 2.66674L8.00017 9.34007L6.00017 7.34007" stroke-width="1.33" stroke-linecap="round" stroke-linejoin="round"/>
    </symbol>

    <symbol viewBox="0 0 52 66" fill="currentColor" stroke="none" id="arrow">
        <g clip-path="url(#clip0_4449_171276)">
        <path d="M33.2936 51.9983C27.3904 44.0042 21.4208 35.9946 15.5176 28.0005C15.6462 27.7516 15.8621 27.4302 15.9907 27.1813C18.8812 28.6053 21.8381 30.0448 24.7493 31.3806C26.4603 32.1551 28.192 32.8414 30.0067 33.175C33.7689 33.8735 35.9062 30.7473 34.9745 26.0621C34.6417 24.4952 34.1968 22.8089 33.5154 21.5321C30.1333 15.3404 26.6433 9.30938 23.2404 3.20582C22.9911 2.77504 22.6754 2.32863 22.2975 2.14673C21.986 1.98046 21.3673 1.92803 21.085 2.23384C20.6949 2.70037 20.2675 3.62337 20.4504 4.03854C20.891 5.44475 21.4395 6.69026 22.0545 7.95137C24.6681 12.9389 27.4145 17.9577 30.0073 23.0334C30.7801 24.5177 31.25 26.396 32.127 28.9283C30.3331 28.5065 29.2286 28.4329 28.2069 28.0066C23.7383 25.8395 19.3112 23.4959 14.8426 21.3288C13.8417 20.8143 12.8616 20.2117 11.7363 20.2262C10.7647 20.1839 9.4236 20.5199 8.66404 21.3648C7.53505 22.588 7.82632 24.3313 8.48701 25.6962C9.102 26.9573 9.71698 28.2184 10.5063 29.3344C15.2173 35.8386 19.8825 42.239 24.5935 48.7431C25.3371 49.7553 26.06 50.8557 27.2772 52.5376C23.27 51.6885 20.9849 47.9877 16.5173 48.7982C17.2695 50.3707 17.6394 51.4812 18.2459 52.182C23.2014 57.348 28.8457 61.3733 34.8095 64.6364C37.2806 66.0548 39.2813 64.1061 39.2468 60.3762C39.2213 58.6954 39.0629 56.9834 38.5765 55.4734C37.3211 51.2704 35.9784 47.1399 34.5694 42.9939C34.3158 42.2829 33.51 41.5352 33.0035 41.6022C31.8824 41.8969 31.7044 43.2507 31.9207 44.4181C32.3784 46.9448 32.9689 49.5028 33.5137 51.957C33.5551 51.7806 33.3808 51.9257 33.2936 51.9983Z" />
        </g>
        <defs>
        <clipPath id="clip0_4449_171276">
        <rect width="39.3204" height="58.1614" fill="white" transform="matrix(-0.973455 -0.228877 -0.228877 0.973455 51.5884 9)"/>
        </clipPath>
        </defs>
    </symbol>

    <symbol viewBox="0 0 24 30" fill="none" id="doc">
        <path d="M14.6666 1.84766H3.99992C3.29267 1.84766 2.6144 2.12861 2.1143 2.6287C1.6142 3.1288 1.33325 3.80708 1.33325 4.51432V25.8477C1.33325 26.5549 1.6142 27.2332 2.1143 27.7333C2.6144 28.2334 3.29267 28.5143 3.99992 28.5143H19.9999C20.7072 28.5143 21.3854 28.2334 21.8855 27.7333C22.3856 27.2332 22.6666 26.5549 22.6666 25.8477V9.84766M14.6666 1.84766L22.6666 9.84766M14.6666 1.84766V9.84766H22.6666M17.3333 16.5143H6.66658M17.3333 21.8477H6.66658M9.33325 11.181H6.66658" stroke="currentColor" stroke-width="2" stroke-linecap="round" stroke-linejoin="round"/>
    </symbol>



    
</svg>